name C:\Users\u0101727\Documents\MyRepositories\upper-imu-dc\Results\main_tracking\Case_70\kinematics.mot
datacolumns 10
datarows 23
range 4.55000000 4.77000000
endheader 
time	clav_prot	clav_elev	scapula_abduction	scapula_elevation	scapula_upward_rot	scapula_winging	plane_elv	shoulder_elv	axial_rot	
          4.55000000	        -35.17062321	          5.43094274	        -14.83599224	         -3.73034202	         44.00618868	         -6.59752444	         -3.23420147	         59.97070163	          9.82741658	
          4.56000000	        -35.25204325	          5.52055640	        -14.78865746	         -3.70294248	         44.27243982	         -6.69365814	         -3.11368840	         60.21036436	          9.83864942	
          4.57000000	        -35.33347789	          5.60825936	        -14.74236513	         -3.67626298	         44.53629636	         -6.78855839	         -2.99084617	         60.45091905	          9.84141871	
          4.58000000	        -35.41490374	          5.69399413	        -14.69718737	         -3.65033323	         44.79760484	         -6.88219141	         -2.86557017	         60.69211264	          9.83731322	
          4.59000000	        -35.49628276	          5.77773984	        -14.65314895	         -3.62516178	         45.05625750	         -6.97453573	         -2.73780656	         60.93368227	          9.82800214	
          4.60000000	        -35.57757135	          5.85951440	        -14.61024616	         -3.60073459	         45.31218795	         -7.06558496	         -2.60754397	         61.17536052	          9.81514634	
          4.61000000	        -35.65872904	          5.93937340	        -14.56846463	         -3.57701567	         45.56536620	         -7.15534956	         -2.47479750	         61.41688341	          9.80031118	
          4.62000000	        -35.73972703	          6.01740526	        -14.52780023	         -3.55394988	         45.81578758	         -7.24385684	         -2.33959079	         61.65799781	          9.78487930	
          4.63000000	        -35.82055542	          6.09372439	        -14.48828091	         -3.53146658	         46.06345730	         -7.33114965	         -2.20193708	         61.89846789	          9.76996562	
          4.64000000	        -35.90122789	          6.16846350	        -14.44998517	         -3.50948373	         46.30837342	         -7.41728383	         -2.06182075	         62.13808195	          9.75634059	
          4.65000000	        -35.98178260	          6.24176558	        -14.41305365	         -3.48791206	         46.55051085	         -7.50232460	         -1.91918259	         62.37666014	          9.74437156	
          4.66000000	        -36.06227922	          6.31377570	        -14.37769155	         -3.46665952	         46.78980848	         -7.58634182	         -1.77391196	         62.61406249	          9.73399245	
          4.67000000	        -36.14279264	          6.38463358	        -14.34416233	         -3.44563548	         47.02616133	         -7.66940501	         -1.62584576	         62.85019550	          9.72471030	
          4.68000000	        -36.22340516	          6.45446871	        -14.31277438	         -3.42475356	         47.25941898	         -7.75157920	         -1.47477236	         63.08501460	          9.71565316	
          4.69000000	        -36.30419820	          6.52339971	        -14.28386338	         -3.40393222	         47.48939051	         -7.83292248	         -1.32043900	         63.31852053	          9.70565805	
          4.70000000	        -36.38524459	          6.59153737	        -14.25777250	         -3.38309306	         47.71585492	         -7.91348534	         -1.16256251	         63.55075062	          9.69338860	
          4.71000000	        -36.46660125	          6.65898946	        -14.23483124	         -3.36215833	         47.93857458	         -7.99331067	         -1.00084436	         63.78176781	          9.67746358	
          4.72000000	        -36.54830164	          6.72586401	        -14.21533233	         -3.34104930	         48.15731016	         -8.07243333	         -0.83499036	         64.01165096	          9.65657658	
          4.73000000	        -36.63034798	          6.79226937	        -14.19950654	         -3.31968690	         48.37183612	         -8.15087835	         -0.66473422	         64.24048809	          9.62959424	
          4.74000000	        -36.71270409	          6.85831000	        -14.18749699	         -3.29799515	         48.58195632	         -8.22865799	         -0.48986295	         64.46837167	          9.59563073	
          4.75000000	        -36.79529098	          6.92407940	        -14.17933672	         -3.27590674	         48.78751968	         -8.30576903	         -0.31024061	         64.69539411	          9.55410212	
          4.76000000	        -36.87798727	          6.98965168	        -14.17493497	         -3.25336970	         48.98843453	         -8.38219129	         -0.12582719	         64.92164120	          9.50476359	
          4.77000000	        -36.96063554	          7.05507441	        -14.17407532	         -3.23035325	         49.18468046	         -8.45788877	          0.06331137	         65.14718232	          9.44772910	
